<?xml version="1.0" encoding="UTF-8"?>
<svg xmlns="http://www.w3.org/2000/svg" width="30.008" height="50" viewBox="0 0 30.008 50">
  <path id="Тризуб"
        d="M16.064,1a7.466,7.466,0,0,0-1.875,4.953c.069,4.172.58,8.339.625,12.5a28.223,28.223,0,0,1-2.49,11.1c-.473.984-.983,1.947-1.494,2.912l-1.5-.3a2.5,2.5,0,0,1,.479-4.953l.548.059L9.134,17.07A15.61,15.61,0,0,0,2.945,5.956,15.738,15.738,0,0,0,1.07,4.744V40.963H9.431A13.739,13.739,0,0,0,14.55,49.34,5.049,5.049,0,0,1,16.074,51,5.022,5.022,0,0,1,17.6,49.34a13.75,13.75,0,0,0,5.118-8.376h8.361V4.744A15.673,15.673,0,0,0,23.014,17.07l-1.221,10.2.548-.059a2.5,2.5,0,0,1,.479,4.953l-1.5.3c-.511-.964-1.023-1.927-1.494-2.912a28.183,28.183,0,0,1-2.492-11.1c.045-4.176.556-8.339.625-12.5A7.475,7.475,0,0,0,16.083,1ZM3.562,9.964a13.038,13.038,0,0,1,3.026,6.867l1,8.414A5.015,5.015,0,0,0,4.969,28.47H3.553V9.967Zm25,0v18.5H27.15a5.013,5.013,0,0,0-2.618-3.224l1-8.414A13.094,13.094,0,0,1,28.557,9.96ZM16.064,26.88A28.532,28.532,0,0,0,18.808,33.1a5.61,5.61,0,0,0-2.744,1.845A5.629,5.629,0,0,0,13.32,33.1a28.6,28.6,0,0,0,2.744-6.222Zm-12.5,4.093H4.978a5.021,5.021,0,0,0,3.5,3.566l1.2.274a13.732,13.732,0,0,0-.5,3.663H3.557v-7.5Zm23.592,0H28.57v7.5H22.944a13.781,13.781,0,0,0-.5-3.663l1.2-.274a5,5,0,0,0,3.5-3.566ZM12.126,35.386a3.121,3.121,0,0,1,2.685,3.087H11.686a11.182,11.182,0,0,1,.44-3.087Zm7.873,0a11.169,11.169,0,0,1,.44,3.087H17.313A3.119,3.119,0,0,1,20,35.386Zm-8.026,5.588h2.842v5.263A11.346,11.346,0,0,1,11.972,40.974Zm5.342,0h2.842a11.244,11.244,0,0,1-2.842,5.263Z"
        transform="translate(-1.07 -1)" fill="#ffe358"/>
</svg>
